<svg version="1.1" viewBox="0.0 0.0 960.0 192.0" fill="none" stroke="none" stroke-linecap="square" stroke-miterlimit="10" xmlns:xlink="http://www.w3.org/1999/xlink" xmlns="http://www.w3.org/2000/svg"><clipPath id="p.0"><path d="m0 0l960.0 0l0 192.0l-960.0 0l0 -192.0z" clip-rule="nonzero"/></clipPath><g clip-path="url(#p.0)"><path fill="#000000" fill-opacity="0.0" d="m0 0l960.0 0l0 192.0l-960.0 0z" fill-rule="evenodd"/><path fill="#000000" fill-opacity="0.0" d="m0 0l960.0 0l0 192.0l-960.0 0z" fill-rule="evenodd"/><path fill="#000000" d="m79.0975 160.33374l36.515625 0q18.25 0 18.25 -18.90625l0 -74.109375q0 -18.90625 -18.25 -18.90625l-36.515625 0q-2.171875 0 -2.171875 1.953125l0 108.015625q0 1.953125 2.171875 1.953125zm-18.03125 10.859375l0 -133.65625q0 -3.03125 3.046875 -3.03125l53.453125 0q15.0 0 23.578125 8.578125q8.59375 8.578125 8.59375 23.578125l0 75.40625q0 15.0 -8.59375 23.59375q-8.578125 8.578125 -23.578125 8.578125l-53.453125 0q-3.046875 0 -3.046875 -3.046875z" fill-rule="nonzero"/><path fill="#000000" d="m181.43192 174.23999l-9.59375 0q-2.5 0 -1.734375 -2.6875l35.90625 -118.078125q0.765625 -2.6875 3.640625 -2.6875l13.828125 0q2.875 0 3.65625 2.6875l35.890625 118.078125q0.78125 2.6875 -1.71875 2.6875l-9.796875 0q-2.109375 0 -2.6875 -2.6875l-9.015625 -28.03125l-46.46875 0l-9.03125 28.03125q-0.765625 2.6875 -2.875 2.6875zm34.75 -109.0625l-19.765625 66.4375l40.3125 0l-19.78125 -66.4375l-0.765625 0zm95.42996 96.78125l19.578125 0q16.125 0 16.125 -16.703125l0 -65.484375q0 -16.703125 -16.125 -16.703125l-19.578125 0q-15.9375 0 -15.9375 16.703125l0 65.484375q0 16.703125 15.9375 16.703125zm21.3125 12.28125l-22.859375 0q-13.234375 0 -20.828125 -7.484375q-7.578125 -7.484375 -7.578125 -20.9375l0 -66.625q0 -13.4375 7.578125 -20.921875q7.59375 -7.484375 20.828125 -7.484375l22.859375 0q13.25 0 20.828125 7.59375q7.578125 7.578125 7.578125 20.8125l0 66.625q0 13.25 -7.578125 20.84375q-7.578125 7.578125 -20.828125 7.578125z" fill-rule="nonzero"/><path fill="#000000" d="m409.7878 160.77124l35.640625 0q18.703125 0 18.703125 -18.484375l0 -14.125q0 -18.46875 -20.0 -18.46875l-34.34375 0q-2.171875 0 -2.171875 1.953125l0 46.953125q0 2.171875 2.171875 2.171875zm0 -64.328125l33.46875 0q19.125 0 19.125 -18.484375l0 -11.515625q0 -18.46875 -18.46875 -18.46875l-34.125 0q-2.171875 0 -2.171875 2.171875l0 44.328125q0 1.96875 2.171875 1.96875zm-18.03125 74.75l0 -133.65625q0 -3.03125 3.046875 -3.03125l51.0625 0q15.0 0 23.46875 8.375q8.484375 8.359375 8.484375 23.34375l0 11.953125q0 19.34375 -18.265625 25.0q8.265625 0.640625 14.125 7.28125q5.875 6.625 5.875 17.484375l0 14.5625q0 15.0 -8.59375 23.375q-8.578125 8.359375 -23.5625 8.359375l-52.59375 0q-3.046875 0 -3.046875 -3.046875z" fill-rule="nonzero"/><path fill="#000000" d="m537.10095 161.95874l19.578125 0q16.125 0 16.125 -16.703125l0 -65.484375q0 -16.703125 -16.125 -16.703125l-19.578125 0q-15.9375 0 -15.9375 16.703125l0 65.484375q0 16.703125 15.9375 16.703125zm21.3125 12.28125l-22.859375 0q-13.234375 0 -20.828125 -7.484375q-7.5781555 -7.484375 -7.5781555 -20.9375l0 -66.625q0 -13.4375 7.5781555 -20.921875q7.59375 -7.484375 20.828125 -7.484375l22.859375 0q13.25 0 20.828125 7.59375q7.578125 7.578125 7.578125 20.8125l0 66.625q0 13.25 -7.578125 20.84375q-7.578125 7.578125 -20.828125 7.578125zm84.8634 -12.28125l19.578125 0q16.125 0 16.125 -16.703125l0 -65.484375q0 -16.703125 -16.125 -16.703125l-19.578125 0q-15.9375 0 -15.9375 16.703125l0 65.484375q0 16.703125 15.9375 16.703125zm21.3125 12.28125l-22.859375 0q-13.234375 0 -20.828125 -7.484375q-7.578125 -7.484375 -7.578125 -20.9375l0 -66.625q0 -13.4375 7.578125 -20.921875q7.59375 -7.484375 20.828125 -7.484375l22.859375 0q13.25 0 20.828125 7.59375q7.578125 7.578125 7.578125 20.8125l0 66.625q0 13.25 -7.578125 20.84375q-7.578125 7.578125 -20.828125 7.578125zm68.16034 0l-8.640625 0q-2.6875 0 -2.6875 -2.6875l0 -118.078125q0 -2.6875 2.6875 -2.6875l8.640625 0q2.6875 0 2.6875 2.6875l0 66.234375l0.578125 0q1.34375 -4.03125 4.21875 -7.875l43.0 -58.359375q1.734375 -2.6875 5.0 -2.6875l10.375 0q3.25 0 0.953125 2.875l-38.015625 51.453125l43.390625 66.046875q2.109375 3.078125 -1.734375 3.078125l-7.859375 0q-4.03125 0 -5.578125 -2.6875l-36.859375 -56.25l-17.46875 20.921875l0 35.328125q0 2.6875 -2.6875 2.6875zm90.624084 -28.421875l0 -6.140625q0 -2.6875 2.6875 -2.6875l8.640625 0q2.6875 0 2.6875 2.6875l0 5.0q0 17.28125 17.078125 17.28125l16.90625 0q17.078125 0 17.078125 -17.671875l0 -6.53125q0 -13.8125 -22.84375 -18.046875q-9.59375 -1.71875 -19.203125 -4.015625q-9.59375 -2.3125 -16.3125 -8.9375q-6.71875 -6.625 -6.71875 -18.140625l0 -9.421875q0 -13.234375 7.578125 -20.8125q7.578125 -7.59375 20.828125 -7.59375l21.3125 0q13.0625 0 20.734375 7.59375q7.6875 7.578125 7.6875 20.8125l0 4.8125q0 2.875 -2.5 2.875l-8.828125 0q-2.5 0 -2.5 -2.875l0 -3.46875q0 -17.46875 -17.078125 -17.46875l-16.328125 0q-17.09375 0 -17.09375 18.25l0 7.671875q0 9.796875 12.875 13.4375q5.75 1.546875 12.65625 2.796875q6.921875 1.234375 13.921875 3.25q7.015625 2.015625 12.765625 5.0q5.765625 2.96875 9.3125 9.015625q3.5625 6.046875 3.5625 14.6875l0 8.640625q0 13.25 -7.6875 20.84375q-7.671875 7.578125 -20.734375 7.578125l-22.078125 0q-13.046875 0 -20.734375 -7.578125q-7.671875 -7.59375 -7.671875 -20.84375z" fill-rule="nonzero"/></g></svg>